<svg width="24" height="24" viewBox="0 0 24 24" fill="none" xmlns="http://www.w3.org/2000/svg">
  <!-- 카카오 로고 배경 원 -->
  <circle cx="12" cy="12" r="12" fill="#FEE500"/>
  
  <!-- 카카오 로고 텍스트 스타일의 심볼 -->
  <path d="M7 8.5C7 7.67 7.67 7 8.5 7h7c.83 0 1.5.67 1.5 1.5v7c0 .83-.67 1.5-1.5 1.5h-7C7.67 17 7 16.33 7 15.5v-7z" fill="#000000"/>
  
  <!-- 카카오 로고 내부 디자인 -->
  <path d="M9 10.5C9 9.67 9.67 9 10.5 9h3c.83 0 1.5.67 1.5 1.5v3c0 .83-.67 1.5-1.5 1.5h-3C9.67 15 9 14.33 9 13.5v-3z" fill="#FEE500"/>
  
  <!-- 카카오 로고 중앙 포인트 -->
  <circle cx="12" cy="12" r="1.5" fill="#000000"/>
</svg> 